<svg
   viewBox="0 0 896 834.66669"
   height="834.66669"
   width="896"
   xml:space="preserve"
   id="svg2"
   version="1.1"
   sodipodi:docname="logo-bijoux-alex-yell-chemin.svg"
   inkscape:version="1.1.1 (3bf5ae0d25, 2021-09-20)"
   xmlns:inkscape="http://www.inkscape.org/namespaces/inkscape"
   xmlns:sodipodi="http://sodipodi.sourceforge.net/DTD/sodipodi-0.dtd"
   xmlns="http://www.w3.org/2000/svg"
   xmlns:svg="http://www.w3.org/2000/svg"
   xmlns:rdf="http://www.w3.org/1999/02/22-rdf-syntax-ns#"
   xmlns:cc="http://creativecommons.org/ns#"
   xmlns:dc="http://purl.org/dc/elements/1.1/"><sodipodi:namedview
   id="namedview20"
   pagecolor="#ffffff"
   bordercolor="#666666"
   borderopacity="1.0"
   inkscape:pageshadow="2"
   inkscape:pageopacity="0.0"
   inkscape:pagecheckerboard="0"
   showgrid="false"
   inkscape:zoom="0.99680509"
   inkscape:cx="447.9311"
   inkscape:cy="417.83495"
   inkscape:window-width="1920"
   inkscape:window-height="1017"
   inkscape:window-x="1016"
   inkscape:window-y="95"
   inkscape:window-maximized="1"
   inkscape:current-layer="svg2" />
   <metadata
   id="metadata8">
     <rdf:RDF>
     <cc:Work
   rdf:about=""><dc:format>image/svg+xml</dc:format><dc:type
     rdf:resource="http://purl.org/dc/dcmitype/StillImage" /></cc:Work></rdf:RDF></metadata><defs
   id="defs6"><clipPath
     id="clipPath18"
     clipPathUnits="userSpaceOnUse"><path
       id="path16"
       d="M 0,626 H 672 V 0 H 0 Z" /></clipPath><clipPath
     id="clipPath34"
     clipPathUnits="userSpaceOnUse"><path
       id="path32"
       d="M 0,626 H 672 V 0 H 0 Z" /></clipPath></defs><g
   transform="matrix(1.3333333,0,0,-1.3333333,0,834.66667)"
   id="g10"><g
   id="g12"><g
     clip-path="url(#clipPath18)"
     id="g14"><g
   aria-label="Alex"
   transform="matrix(1,0,0,-1,44.5884,378.0264)"
   id="text22"
   style="font-weight:300;font-size:302px;font-family:'Nexa Rust Script L0';-inkscape-font-specification:NexaRustScriptL-0;fill:#2a4959"><path
     d="m 32.012,2.114 3.02,0.302 h 7.55 L 45.3,2.114 48.622,1.208 51.34,0.302 l 3.02,-1.208 3.624,-1.208 2.416,-1.51 4.832,-2.416 2.114,-1.51 2.416,-2.114 2.718,-2.416 2.416,-2.718 3.322,-4.53 1.812,-2.114 1.51,-2.114 1.51,-2.718 1.812,-3.02 1.812,-3.322 2.718,-5.134 1.208,-2.416 1.51,-3.624 1.51,-3.322 1.208,-2.718 0.906,-2.416 0.906,-2.718 0.906,-2.416 0.906,-2.718 0.906,-2.416 1.208,-2.718 1.208,-3.322 2.114,-2.114 2.416,-0.302 3.624,0.906 6.342,1.51 4.228,0.906 3.926,0.604 6.04,0.302 3.02,0.302 6.946,0.604 2.416,0.302 0.906,1.51 v 2.114 l -0.906,3.926 -1.51,4.832 -1.51,5.134 -0.906,4.832 -0.906,3.624 -0.604,3.02 -1.812,7.248 -0.604,3.02 -0.906,3.624 -1.208,3.926 -0.302,2.114 -0.906,4.228 -0.302,4.832 v 3.624 l 1.51,2.114 2.416,1.208 3.02,0.604 2.718,0.302 3.02,0.302 3.02,-0.302 2.718,-0.604 2.718,-1.208 1.812,-2.114 0.906,-3.624 0.906,-3.926 0.906,-2.718 0.604,-3.926 0.906,-5.134 1.208,-4.832 0.906,-3.926 0.604,-3.02 3.322,-13.288 1.208,-4.53 0.604,-3.322 0.604,-3.02 0.604,-3.322 1.208,-2.114 1.812,-1.51 2.114,-0.604 3.02,-0.302 2.416,-0.302 2.718,-0.302 3.322,-0.906 3.624,-0.906 3.322,-0.906 2.718,-0.906 2.416,-1.208 2.718,-0.906 3.624,-1.51 7.248,-4.228 3.02,-1.812 4.832,-3.02 3.02,-2.416 2.718,-3.02 1.51,-1.51 2.114,-2.416 1.812,-2.114 1.51,-2.114 0.604,-2.718 v -2.416 l -1.51,-2.114 -2.416,-0.906 -2.114,0.604 -2.114,1.51 -5.134,4.53 -3.926,3.02 -4.228,2.718 -4.53,2.416 -4.832,2.114 -4.832,1.812 -5.134,1.812 -4.832,1.208 -5.134,0.906 -4.53,0.302 -2.114,-1.208 v -2.114 l 1.812,-7.248 0.906,-3.02 0.906,-3.926 1.208,-4.832 1.208,-3.624 0.906,-3.02 0.906,-3.624 0.906,-3.926 0.906,-2.718 1.208,-3.926 1.208,-4.53 0.906,-3.926 0.302,-2.718 0.604,-3.322 0.604,-3.02 0.906,-3.02 0.906,-3.624 0.604,-3.02 0.604,-3.624 0.604,-3.926 v -2.718 l 0.604,-2.718 0.604,-5.436 v -5.738 l 0.302,-2.718 v -2.718 l -0.302,-3.02 -1.812,-8.154 -0.604,-2.416 -1.208,-2.718 -1.51,-2.416 -1.51,-2.114 -2.114,-1.812 -2.416,-1.812 -2.718,-1.208 -2.416,-0.604 -5.436,-0.604 h -2.718 l -5.436,0.604 -2.718,0.604 -2.416,0.906 -3.02,0.906 -1.51,0.906 -3.02,1.208 -2.718,1.51 -3.02,2.114 -5.134,4.53 -2.114,1.51 -2.416,2.114 -4.832,5.436 -1.812,2.416 -3.624,4.228 -1.51,2.114 -1.208,2.416 -1.812,2.718 -0.604,1.812 -1.812,3.02 -1.208,1.51 -1.51,2.718 -2.416,4.832 -1.51,2.114 -1.51,2.718 -0.906,1.812 -1.51,2.718 -2.416,4.832 -0.906,2.718 -1.51,3.926 -2.114,4.228 -1.51,3.624 -1.51,2.718 -0.906,2.416 -0.906,2.718 -0.906,2.416 -0.906,2.718 -0.906,2.416 -1.208,2.416 -0.906,2.416 -0.906,3.02 -0.906,3.624 -2.114,6.342 -1.812,3.02 -3.02,2.114 -3.624,0.604 h -5.436 l -2.718,0.302 -3.322,0.604 -1.812,0.302 -3.926,0.302 -3.926,0.604 -2.718,0.906 -5.436,1.208 -3.624,1.208 -3.322,1.208 -2.718,1.208 -4.832,2.416 -2.114,1.51 -4.832,2.416 -2.114,1.51 -2.416,1.51 -2.114,1.812 -2.718,2.416 -3.02,2.718 -1.812,2.114 -1.812,1.812 -1.812,2.416 -1.812,3.322 -2.114,3.02 -1.208,2.718 -1.208,2.416 -1.51,2.114 -0.906,2.416 -0.906,2.718 -0.906,3.926 -0.604,4.832 -0.302,3.926 v 3.02 l 1.208,7.248 0.906,2.718 2.416,4.832 2.416,3.02 2.416,2.718 2.416,2.114 3.322,1.812 3.322,1.51 2.718,0.906 3.926,0.906 4.832,0.604 z m 130.162,-192.978 2.718,-0.604 2.416,0.604 2.114,1.51 1.208,2.416 0.604,2.416 0.604,5.436 v 2.718 l -0.302,3.02 -0.302,2.718 -0.302,2.416 -0.604,2.718 -0.906,2.718 -1.208,5.436 -0.604,2.114 -0.604,2.718 -0.302,3.322 -0.604,2.416 -0.604,2.718 -0.906,2.718 -1.812,8.154 -0.604,2.416 -0.906,2.718 -0.604,2.718 -1.812,5.134 -0.604,2.718 -0.604,2.416 -1.812,5.436 -0.604,2.718 -0.604,2.416 -2.718,8.154 -0.604,2.416 -1.812,8.154 -0.906,2.416 -1.812,1.208 -2.416,0.302 -3.624,-0.302 -5.436,-0.604 -4.228,-0.604 h -1.812 l -4.53,-0.604 -11.174,-2.114 -3.624,-1.208 -1.51,-2.718 0.302,-3.624 0.906,-2.718 0.906,-2.416 0.604,-2.718 0.906,-2.718 0.604,-2.718 0.906,-3.624 1.208,-3.624 1.208,-2.718 0.906,-2.416 1.208,-2.718 2.718,-7.248 1.51,-2.718 1.51,-3.624 2.114,-6.342 5.134,-10.268 5.436,-9.06 1.812,-3.322 1.51,-3.322 1.812,-2.416 1.51,-2.114 1.51,-2.416 1.51,-2.114 1.812,-2.114 1.51,-2.114 1.812,-2.114 1.812,-1.812 2.114,-1.812 2.114,-1.51 2.416,-1.51 z m -139.222,155.228 0.604,-3.02 1.208,-3.624 1.51,-3.322 1.51,-2.718 1.51,-2.416 1.208,-2.114 1.812,-2.416 1.51,-1.812 2.114,-2.114 1.812,-1.51 2.416,-1.51 2.114,-1.51 2.416,-1.51 4.832,-2.416 7.55,-3.322 3.624,-1.208 3.624,-0.604 2.718,-0.604 2.718,-0.302 3.02,-0.302 3.322,0.604 1.812,1.208 v 2.416 l -0.604,2.718 -0.906,2.416 -1.812,5.436 -0.906,2.416 -0.906,2.718 -0.906,2.416 -2.416,4.832 -1.208,3.02 -1.812,3.624 -1.51,3.322 -1.208,2.718 -1.51,2.114 -1.51,2.416 -1.812,1.812 -1.812,2.114 -1.812,1.812 -2.718,2.114 -1.208,1.208 -2.718,1.812 -2.416,1.208 -2.718,0.906 -3.926,0.604 -3.624,0.302 -3.02,-0.302 -2.718,-0.604 -2.718,-1.51 -2.114,-1.812 -1.51,-2.114 -0.906,-2.718 -0.604,-2.718 V -30.2 Z"
     id="path837" /><path
     d="m 312.57001,-148.282 1.208,-2.416 2.416,-7.248 0.604,-3.02 0.906,-2.416 1.208,-5.436 0.604,-8.154 v -5.436 l -0.604,-3.926 -1.208,-3.624 -1.208,-2.718 -1.51,-3.624 -2.114,-3.02 -1.51,-2.416 -4.228,-3.624 -2.416,-1.208 -3.02,-0.906 -1.812,-0.302 -3.02,-0.604 h -5.436 l -2.718,0.604 -2.718,0.906 -3.322,1.51 -3.322,2.114 -4.832,3.322 -2.114,1.51 -2.114,2.114 -1.208,1.51 -3.926,3.926 -1.812,2.416 -3.926,5.436 -2.416,3.926 -1.812,2.718 -1.51,2.718 -1.51,3.02 -2.114,5.134 -1.51,2.718 -0.906,1.812 -1.208,2.718 -1.51,3.624 -2.114,4.832 -1.812,4.228 -0.604,1.812 -3.02,7.852 -1.208,2.718 -1.208,3.624 -1.208,3.926 -0.906,2.114 -1.208,3.926 -1.208,4.228 -0.302,2.114 -1.208,4.228 -0.906,3.624 -0.604,2.718 -0.906,3.926 -1.208,4.53 -0.604,1.812 -0.906,3.624 -0.604,1.51 -0.906,5.436 -0.906,3.624 -2.114,9.966 -0.604,3.02 -0.604,2.718 v 2.718 l -0.302,3.624 -0.906,6.644 -0.302,3.926 v 1.812 l -0.302,3.02 -0.302,2.718 v 2.718 l 0.302,2.718 0.604,3.322 v 1.812 l 0.604,3.02 0.302,2.718 0.906,2.718 0.604,2.718 0.906,2.416 1.208,2.718 1.208,2.416 1.812,2.114 1.812,1.812 2.114,1.812 2.416,1.51 2.416,1.208 2.718,0.906 2.416,0.906 2.718,0.604 3.02,0.302 h 1.812 l 3.322,0.302 3.624,-0.302 6.04,-1.208 3.624,-1.208 2.718,-1.208 2.416,-0.906 2.416,-1.208 2.718,-1.208 2.416,-1.208 2.718,-1.51 2.114,-1.812 1.812,-1.51 2.114,-2.114 2.718,-2.416 2.416,-3.02 1.812,-2.114 2.114,-2.718 1.208,-1.208 2.114,-2.718 3.02,-4.228 1.812,-2.416 1.51,-2.718 0.604,-1.51 1.812,-2.718 1.51,-2.416 1.208,-2.114 1.51,-2.416 0.906,-2.416 1.208,-2.416 1.208,-2.718 1.51,-2.416 1.208,-2.416 0.906,-2.718 v -3.02 l -2.416,-3.02 -3.926,-0.604 -3.02,2.416 -2.718,3.926 -1.51,3.02 -1.51,2.718 -1.812,2.718 -1.51,2.416 -2.416,4.53 -1.812,2.718 -1.208,1.51 -1.812,2.718 -1.208,2.114 -1.812,2.416 -1.208,1.51 -1.812,2.416 -2.416,2.114 -3.624,3.322 -2.718,2.718 -3.02,2.416 -2.416,1.812 -3.322,1.812 -3.624,1.51 -2.718,0.906 -2.416,0.302 h -5.134 l -3.02,-0.604 -2.416,-0.906 -2.416,-1.51 -1.812,-2.114 -1.208,-2.416 -1.208,-2.718 -0.604,-3.02 -0.302,-1.812 -0.604,-3.322 v -6.04 l 0.302,-3.926 v -6.342 l 0.302,-3.02 0.604,-2.718 0.604,-3.02 V -60.4 l 0.906,-5.436 0.604,-3.322 1.208,-2.416 2.114,-2.718 3.322,-2.718 2.416,-1.51 2.114,-0.906 6.644,-4.228 2.416,-1.51 4.53,-3.926 3.322,-2.416 2.416,-2.416 2.114,-1.812 3.322,-3.624 1.812,-2.114 3.926,-3.926 2.114,-2.416 1.208,-1.51 2.718,-2.718 2.718,-3.02 2.114,-2.718 1.51,-2.416 1.208,-1.812 1.51,-2.718 1.51,-2.114 1.51,-2.416 1.51,-2.114 2.114,-3.322 1.51,-3.322 2.416,-4.832 1.51,-2.718 z m -48.018,3.624 1.208,-2.718 1.812,-4.53 1.208,-3.322 0.906,-2.416 1.208,-2.718 1.208,-2.416 1.208,-2.718 1.208,-2.416 1.208,-2.718 1.51,-2.718 3.02,-4.53 1.51,-2.416 1.51,-2.114 1.51,-1.812 2.114,-1.812 2.718,-2.114 2.718,-0.604 2.416,0.604 2.114,1.51 0.906,2.416 0.604,2.416 v 5.738 l -0.302,2.718 -0.302,3.02 -1.208,3.322 -0.906,3.322 -1.208,3.322 -0.906,3.322 -0.906,2.718 -0.604,2.718 -1.208,2.718 -1.208,3.02 -0.906,1.812 -1.208,3.02 -2.416,4.832 -1.51,2.114 -1.208,2.114 -1.51,2.416 -2.114,3.322 -2.114,3.02 -2.114,2.718 -1.812,2.718 -1.208,1.208 -1.812,2.718 -1.51,2.416 -1.51,2.114 -12.382,12.382 -3.02,2.416 -1.812,1.208 -0.604,-1.812 0.604,-3.02 0.906,-2.718 0.906,-3.02 0.302,-1.812 0.906,-3.02 2.114,-6.342 1.208,-3.926 0.906,-2.718 0.604,-2.718 4.228,-12.684 z"
     id="path839" /><path
     d="m 404.982,-75.198 1.51,-2.718 0.906,-1.51 1.208,-3.02 1.208,-3.624 0.906,-3.624 0.302,-3.02 0.302,-3.926 v -3.624 l -0.302,-2.718 -0.604,-2.718 -0.906,-2.718 -1.51,-3.624 -1.812,-3.02 -1.812,-2.114 -4.228,-3.624 -1.812,-1.208 -2.416,-1.208 -2.718,-1.208 -2.718,-0.906 -3.926,-0.906 -4.832,-0.906 -3.926,-0.604 h -6.644 l -3.926,0.604 -5.436,1.208 -6.342,2.114 -3.926,1.812 -2.718,1.208 -3.02,1.51 -3.02,1.812 -2.718,2.114 -3.02,2.114 -2.718,2.114 -2.416,2.114 -4.53,4.53 -4.53,4.832 -1.812,2.114 -1.51,2.114 -1.208,2.718 -2.114,3.02 -1.812,3.322 -1.51,2.718 -1.51,3.624 -1.208,3.322 -0.906,2.718 -0.604,2.718 -0.906,2.718 -0.604,2.718 -0.906,2.416 -1.812,8.154 v 2.718 l -0.302,2.718 v 5.738 l 0.906,8.154 0.604,2.718 0.604,2.416 0.604,2.718 0.906,2.718 0.906,2.416 1.208,2.718 1.208,2.114 1.51,2.416 1.812,2.114 2.114,2.416 1.208,1.51 2.114,2.114 2.114,1.812 2.416,1.208 4.832,2.718 2.416,1.208 2.718,1.208 2.718,0.906 2.416,0.604 10.872,1.208 h 2.718 l 3.322,-0.302 3.926,-0.302 6.342,-0.604 3.624,-0.906 3.926,-0.604 2.718,-0.906 2.416,-0.906 7.55,-3.322 4.832,-3.02 2.718,-2.416 3.02,-2.416 4.228,-3.624 1.812,-2.114 2.114,-2.416 0.906,-1.208 2.114,-2.416 1.812,-2.114 1.812,-1.812 1.812,-2.114 3.02,-4.228 1.812,-2.718 0.906,-1.812 3.02,-4.832 1.812,-3.02 1.812,-3.322 1.51,-3.322 1.812,-3.322 1.51,-3.322 1.208,-2.718 0.302,-2.718 -1.51,-2.718 -2.718,-1.812 h -2.718 l -2.114,1.51 -1.51,2.416 -1.208,2.416 -1.208,2.718 -1.208,2.416 -1.51,2.114 -1.208,2.416 -1.51,2.416 -1.208,2.416 -1.51,2.416 -3.02,4.228 -1.812,2.416 -1.51,2.114 -3.624,4.228 -4.228,3.926 -2.114,1.812 -2.114,1.51 -4.228,3.322 -4.832,2.416 -5.134,2.114 -2.416,0.906 -2.718,0.906 -2.718,0.604 -7.852,1.51 -2.718,0.302 h -3.02 l -2.718,-0.302 -2.718,-0.604 -2.114,-0.302 -2.718,-0.906 -3.02,-0.906 -4.832,-3.02 -1.812,-1.812 -1.812,-2.114 -3.02,-4.832 -1.812,-5.436 -0.604,-2.416 -0.302,-3.02 V -45.3 l 0.302,-3.02 v -2.718 l 0.604,-2.114 1.51,-1.208 h 2.114 l 8.154,1.812 2.718,0.302 5.436,0.302 5.436,0.604 h 2.718 l 2.718,-0.302 3.624,-0.604 3.322,-0.302 3.02,-0.604 2.718,-0.302 2.718,-0.906 3.02,-0.906 2.718,-1.208 1.812,-0.906 3.02,-1.812 1.812,-0.604 2.718,-1.51 2.114,-1.51 4.228,-3.624 3.624,-4.228 1.51,-2.114 z m -34.126,-34.73 3.02,-0.604 2.718,0.302 2.718,0.604 2.718,1.208 2.416,1.812 1.812,2.114 1.208,2.718 0.302,3.02 -0.302,2.718 -0.604,3.02 -1.812,5.436 -1.51,2.718 -1.208,2.416 -1.51,2.114 -1.812,2.416 -2.114,1.812 -2.114,2.114 -2.114,1.812 -2.114,1.51 -3.02,1.51 -1.812,0.604 -3.02,1.208 -2.718,0.604 -3.02,0.604 h -8.456 l -3.02,-0.302 -6.04,-0.302 -3.926,-0.906 -1.51,-1.51 0.302,-2.114 0.906,-2.416 1.208,-2.718 1.208,-3.624 1.812,-3.322 1.51,-2.718 2.114,-3.02 2.114,-3.322 2.114,-2.416 2.416,-2.718 2.718,-2.718 4.228,-3.624 2.416,-1.51 3.624,-1.812 4.228,-1.812 z"
     id="path841" /><path
     d="m 570.4478,-70.366 -2.718,0.302 -1.812,1.812 -1.51,2.416 -1.208,2.416 -1.51,2.718 -1.51,3.322 -1.812,3.322 -1.51,2.718 -1.208,2.416 -1.51,2.114 -1.208,2.416 -1.51,2.114 -1.51,2.416 -1.51,2.114 -1.51,2.416 -1.812,2.114 -3.322,4.228 -1.812,2.114 -5.738,5.738 -2.114,1.51 -2.718,1.51 -1.812,0.906 -2.718,1.208 -2.718,0.302 -2.718,-0.302 -2.416,-1.51 -2.114,-1.812 -1.51,-2.416 -1.51,-2.718 -1.51,-2.416 -1.208,-2.718 -0.906,-2.718 -0.906,-3.02 -1.208,-3.624 -1.208,-4.832 -0.906,-5.134 -1.51,-4.832 -0.604,-4.53 v -3.624 l 1.51,-2.718 3.322,-3.926 1.812,-2.114 1.51,-2.114 3.624,-4.228 1.812,-1.812 1.51,-2.114 1.812,-2.114 1.51,-2.416 2.114,-2.416 1.208,-1.208 2.416,-3.02 0.906,-1.208 2.114,-2.718 1.812,-2.114 1.51,-2.114 5.436,-6.342 2.114,-2.416 0.906,-1.208 2.416,-3.02 1.208,-1.208 2.114,-2.718 1.51,-2.114 0.604,-2.416 -1.208,-1.812 -2.416,-0.906 -3.322,-0.302 -1.812,-0.302 h -6.04 l -2.718,0.302 -2.416,0.906 -2.416,1.208 -2.114,1.812 -1.812,2.114 -3.322,4.53 -1.812,2.114 -1.812,2.416 -1.51,2.114 -7.248,8.456 -2.114,2.114 -1.51,2.114 -1.51,2.416 -5.436,6.342 -1.51,1.208 -1.812,-1.51 -1.208,-3.02 -0.604,-2.718 -1.812,-5.436 -0.604,-2.416 -0.906,-2.718 -0.906,-2.416 -0.906,-2.718 -1.208,-2.718 -0.906,-2.718 -3.624,-6.644 -1.812,-2.416 -2.114,-2.114 -2.114,-1.51 -2.718,-1.208 -2.416,-0.604 -2.718,-0.302 h -2.718 l -2.718,0.302 -2.718,0.604 -3.322,1.812 -3.02,2.114 -2.114,1.812 -1.51,2.114 -1.812,2.416 -1.812,3.02 -2.114,3.322 -1.208,2.718 -1.812,3.322 -1.51,3.322 -1.208,2.718 -1.208,2.416 -1.208,2.718 -1.208,3.322 -1.208,3.624 -1.208,2.718 -1.51,3.624 -1.51,3.322 -1.208,2.718 -1.208,2.416 -1.208,2.718 -3.02,6.644 -0.906,2.718 -0.302,2.718 1.208,2.114 2.718,1.812 h 2.718 l 2.114,-1.51 1.812,-2.114 1.208,-2.416 0.906,-2.718 1.208,-2.416 1.208,-2.718 1.51,-2.416 2.416,-4.832 1.208,-2.718 0.906,-2.416 1.208,-2.718 5.134,-10.268 0.604,-1.812 1.51,-2.718 1.208,-2.416 1.208,-2.718 1.51,-2.416 2.114,-1.51 h 2.416 l 2.114,1.812 1.208,2.416 1.208,2.718 0.906,2.416 1.812,5.436 0.604,2.416 0.604,2.718 0.906,2.718 0.604,2.718 0.604,2.416 1.208,5.436 2.718,8.154 0.604,2.416 -0.302,2.718 -1.812,2.416 -1.208,1.208 -2.114,2.416 -1.51,1.51 -1.51,2.114 -2.114,2.416 -1.812,2.114 -1.812,1.812 -1.812,2.114 -1.51,2.114 -2.114,2.416 -2.416,3.02 -1.812,2.718 -2.114,2.416 -2.416,3.02 -2.416,2.718 -1.812,2.416 -5.436,6.342 -4.228,4.832 -2.114,3.02 -1.51,2.416 -1.208,2.416 0.906,1.812 2.718,1.208 2.718,0.302 h 8.154 l 2.718,-0.302 3.02,-0.604 2.416,-1.208 2.114,-1.812 3.624,-4.228 4.53,-6.342 1.812,-2.416 1.812,-2.114 1.812,-2.718 1.812,-2.114 3.322,-3.624 1.51,-2.114 5.436,-6.342 1.51,-2.416 1.812,-1.208 1.812,1.51 1.51,3.926 1.51,4.832 1.51,4.53 1.51,3.624 0.906,2.718 1.51,3.624 2.718,3.926 3.322,3.926 3.926,3.322 4.53,2.416 4.832,1.51 h 5.134 l 4.832,-0.302 3.926,-0.906 5.436,-1.812 2.416,-1.51 2.114,-1.51 4.228,-3.624 2.114,-1.51 2.416,-2.114 3.624,-3.624 1.812,-2.114 3.624,-3.926 1.51,-2.114 3.02,-4.832 4.53,-6.946 2.416,-3.322 1.812,-3.02 1.208,-2.718 1.208,-2.416 1.51,-2.416 1.208,-2.416 0.906,-2.718 1.208,-2.416 1.51,-2.718 1.51,-3.322 0.604,-3.926 -1.51,-2.718 z"
     id="path843" /></g>
</g></g><g
   aria-label="Yell"
   transform="matrix(1,0,0,-0.96472945,53.3843,156.1211)"
   id="text26"
   style="font-weight:300;font-size:313.457px;font-family:'Nexa Rust Script L0';-inkscape-font-specification:NexaRustScriptL-0;fill:#2a4959"><path
     d="M 79.304621,57.049174 78.36425,59.870287 77.737336,62.6914 v 3.13457 l 0.313457,4.074941 0.313457,3.761484 0.940371,3.13457 0.940371,2.507656 1.567285,2.507656 2.194199,2.194199 1.880742,1.567285 2.507656,1.567285 5.328769,2.507656 2.507656,0.940371 2.821113,0.940371 3.134568,0.313457 h 10.971 l 4.07494,-0.626914 5.01531,-1.253828 4.70186,-2.194199 3.44802,-1.880742 2.82112,-1.567285 3.13457,-2.507656 3.76148,-3.13457 2.82111,-2.821113 1.88074,-3.13457 2.1942,-3.448027 2.1942,-4.074941 1.88074,-3.448027 1.25383,-2.821113 1.56729,-3.761484 0.94037,-3.761484 3.76148,-11.284452 0.62692,-2.821113 0.94037,-3.13457 0.94037,-2.821113 0.94037,-3.13457 0.62691,-2.821113 0.94037,-3.13457 1.25383,-2.821113 2.50766,-2.507656 3.76148,-2.507656 1.88074,-0.940371 4.07495,-1.880742 3.44802,-1.880742 3.13457,-1.880742 2.1942,-1.567285 2.50766,-1.567285 2.1942,-1.880742 4.38839,-3.13457 2.50766,-1.567285 1.88074,-1.880742 6.5826,-5.642226 2.50766,-2.194199 1.88074,-2.194199 1.56728,-1.880742 1.56729,-2.194199 1.88074,-2.194199 1.88074,-1.880742 1.88074,-2.194199 1.56729,-2.507656 3.76148,-4.388398 1.56729,-2.194199 1.25383,-2.507656 3.13457,-5.015312 1.56728,-2.194199 3.13457,-5.015312 2.50766,-5.015312 0.94037,-2.821113 1.25383,-2.507656 1.56728,-2.194199 1.88074,-5.642226 -0.31345,-3.13457 -2.50766,-3.13457 -3.76148,-0.313457 -2.50766,1.567285 -1.56729,2.507656 -2.50765,5.015312 -1.25383,2.194199 -2.50766,5.015312 -1.25382,2.821113 -2.1942,3.448027 -2.82112,4.074941 -2.19419,3.448027 -1.56729,2.507656 -3.13457,4.388398 -3.76148,4.701855 -2.50766,2.821113 -2.50766,3.13457 -4.07494,3.761484 -1.88074,2.194199 -2.1942,1.567285 -2.50765,1.880742 -2.82112,2.507656 -3.13457,2.507656 -2.1942,1.567285 -5.01531,3.13457 -6.89605,3.761484 -2.1942,0.313457 -0.94037,-0.940371 0.31346,-1.880742 0.62691,-2.821113 1.88074,-5.328769 0.94037,-2.821113 0.62692,-2.821113 0.31345,-2.507656 0.62692,-2.821113 0.94037,-2.821113 0.94037,-2.507656 0.94037,-2.821113 1.25383,-5.642226 0.94037,-3.761484 1.25383,-4.074941 1.88074,-5.642226 1.88074,-7.522968 0.94037,-3.448027 0.62692,-2.507656 0.62691,-2.821113 0.94037,-2.821113 0.94037,-2.507656 0.94037,-3.13457 1.25383,-3.761484 0.94037,-3.761484 1.25383,-5.642226 0.94037,-2.821113 0.94037,-2.507656 0.62692,-2.821113 0.94037,-2.821113 0.62691,-2.507657 1.88074,-5.64223 0.62692,-2.82111 0.62691,-2.50765 1.88074,-5.64223 0.94037,-4.07494 1.25383,-4.3884 1.56729,-6.5826 0.94037,-3.76148 0.62691,-2.82111 1.88074,-5.64223 0.94038,-2.50766 0.62691,-2.82111 0.94037,-2.50765 0.94037,-2.82112 0.62692,-2.82111 0.62691,-2.50766 0.62691,-2.82111 0.94037,-2.82111 0.94038,-2.50766 0.94037,-2.82111 0.62691,-2.82111 0.62691,-2.50766 1.88075,-5.64223 1.25382,-4.07494 0.94038,-3.76148 0.94037,-3.13457 1.25382,-3.76149 0.94038,-3.76148 -0.94038,-2.82111 -1.88074,-2.1942 -2.50765,-1.56729 -5.64223,-1.88074 -3.13457,-0.31346 h -3.13457 l -2.82111,0.62692 -2.1942,1.88074 -1.25383,2.50766 -2.1942,6.58259 -0.94037,4.07494 -0.94037,2.82112 -0.94037,3.76148 -1.25383,4.07494 -0.94037,2.82112 -0.94037,4.07494 -0.94037,3.76148 -0.94037,2.82111 -0.94037,2.50766 -0.94038,2.82111 -0.94037,2.50766 -0.94037,2.82111 -0.62691,2.50766 -0.94037,2.82111 -1.25383,5.64223 -0.94037,3.76148 -1.25383,3.76148 -0.94037,3.13457 -2.50766,7.52297 -0.62691,2.82112 -0.94037,2.82111 -0.94037,2.50765 -0.62692,2.82112 -0.62691,2.50765 -0.62691,2.82112 -1.25383,2.82111 -0.94037,3.76148 -1.25383,3.76149 -1.25383,5.642224 -0.94037,3.13457 -0.62691,1.880742 -0.94038,3.13457 -1.88074,5.015312 -3.13457,9.40371 -1.56728,3.761484 -0.94037,2.821113 -1.25383,2.507656 -1.56729,2.507656 -1.88074,3.448027 -2.1942,3.448027 -1.88074,2.507656 -2.1942,3.13457 -2.1942,3.448027 -1.88074,2.507656 -1.88074,2.194199 -1.56729,2.194199 -2.1942,2.507656 -1.88074,2.194199 -1.88074,1.880742 -3.76148,3.448027 -4.3884,3.761484 -4.3884,3.13457 -2.1942,1.880742 -2.82111,1.567285 -2.50766,1.253828 -2.1942,0.940371 -5.32877,1.880742 -5.64222,1.253828 -2.82111,0.313457 -2.821118,-0.313457 -2.821113,-0.626914 -2.507656,-0.940371 -2.507656,-1.567285 -2.194199,-2.194199 -1.567285,-2.194199 -1.253828,-2.821113 -1.253828,-2.507656 -0.313457,-3.13457 -0.313457,-2.821113 v -9.090253 l 0.313457,-2.821113 0.626914,-2.821113 0.626914,-3.13457 0.626914,-2.194199 0.626914,-2.821113 0.626914,-3.448027 1.253828,-5.642226 0.313457,-3.13457 0.940371,-4.074941 1.253828,-4.074941 0.626914,-1.880742 0.940371,-3.448027 0.626914,-2.821113 0.940371,-2.821113 0.626914,-2.507656 1.253828,-5.642226 0.940371,-2.507659 0.626914,-2.82111 0.940371,-2.50766 0.940371,-2.82111 1.253827,-5.64223 0.62692,-2.50765 0.62691,-2.82111 1.88074,-5.64223 0.62692,-2.82111 0.62691,-2.50766 0.94037,-2.82111 1.25383,-5.64223 0.62691,-2.50765 0.94037,-2.82112 0.62692,-2.82111 0.94037,-2.50766 0.94037,-2.82111 1.25383,-5.32877 0.94037,-2.82111 0.62691,-2.82111 0.94037,-2.50766 0.62692,-2.82111 0.94037,-2.82112 0.62691,-3.13457 0.31346,-1.88074 0.94037,-3.44803 2.82111,-7.52296 0.94037,-2.82112 0.62692,-2.82111 0.94037,-2.82111 0.94037,-3.13457 0.62691,-1.56729 0.94038,-3.13457 0.62691,-2.82111 0.31346,-2.82111 -0.94037,-2.82112 -2.1942,-1.88074 -2.50766,-1.56728 -3.13457,-1.25383 -2.82111,-0.94037 h -3.13457 l -2.82112,0.31345 -2.82111,1.25383 -2.1942,1.88074 -1.88074,2.1942 -1.56728,2.50766 -6.896059,6.89605 -9.40371,7.83643 -2.821113,2.1942 -1.567285,0.94037 -5.015312,3.44803 -2.194199,1.56728 -2.821113,1.56729 -3.13457,1.56728 -3.448027,1.25383 -10.657538,5.32877 -2.821113,1.25383 -3.448027,1.56728 -6.582597,2.1942 -3.13457,1.25383 -1.880742,0.94037 -2.821113,1.25383 -2.821113,0.94037 -3.448027,1.56728 -3.448027,1.88074 -2.821113,1.56729 -2.821113,1.88074 -1.880742,0.94037 -3.448027,2.50766 -3.13457,2.50765 -2.194199,1.88075 -1.880742,1.88074 -3.761484,4.3884 L 0,-144.50368 l -1.567285,3.44803 -1.567285,3.76148 -0.940371,2.82112 -0.940371,2.50765 -0.626914,2.82112 v 6.26914 l 0.313457,1.88074 0.626914,3.13457 0.626914,2.82111 3.761484,7.52297 1.567285,2.50765 1.880742,2.1942 2.194199,1.88075 2.194199,1.567281 2.507656,1.567285 2.194199,1.253828 2.821113,1.253828 10.970995,2.507656 h 3.13457 l 3.448027,-0.940371 3.448027,-3.448027 1.253828,-4.3884 -1.567285,-4.3884 -2.821113,-2.1942 -2.821113,-0.94037 -2.821113,-1.25382 -2.194199,-1.88075 -1.880742,-2.50765 -1.253828,-2.82112 -0.940371,-2.82111 -0.626914,-2.82111 v -3.13457 l 1.253828,-5.64223 0.940371,-2.82111 1.880742,-3.44803 2.507656,-3.13457 2.507656,-2.1942 1.567285,-1.25382 5.015312,-3.76149 2.507656,-1.56728 3.448027,-1.56729 3.448027,-1.88074 2.821113,-1.25383 3.761484,-1.88074 3.448027,-1.88074 5.015312,-2.82112 5.015312,-2.50765 5.328769,-3.13457 1.567285,-0.94037 3.761484,-2.50766 3.448027,-1.88074 2.507656,-1.88074 4.388398,-3.13457 2.507656,-1.88074 2.194199,-2.1942 1.567285,-1.88075 1.567285,-1.25382 0.626914,0.31345 -0.313457,2.1942 -0.940371,2.82112 -0.626914,3.13457 -0.940371,3.76148 -2.194199,6.5826 -0.626914,2.82111 -0.626914,2.50766 -0.940371,2.82111 -0.940371,3.13457 -0.626914,1.88074 -0.940371,3.13457 -0.626914,2.82111 -0.626914,2.50766 -0.940371,2.82111 -0.940371,2.50766 -0.940371,2.82111 -0.626914,2.82111 -0.940371,4.07495 -0.940371,3.76148 -0.626914,2.82111 -1.880742,5.64223 -0.940371,2.50765 -0.940371,2.82112 -0.626914,2.50765 -0.940371,2.82112 -1.253828,5.64222 -1.880742,7.522971 -0.940371,3.13457 -0.940371,2.507656 -0.940371,2.821113 -1.880742,8.463339 -0.940371,2.821113 -0.940371,4.074941 -0.626914,3.761484 -0.626914,3.13457 -0.313457,2.821113 -0.626914,2.821113 -1.880742,16.926678 v 5.955683 l 0.313457,2.821113 v 2.821113 l 1.253828,5.642226 0.940371,2.507656 0.940371,2.821113 0.940371,2.507656 1.253828,2.821113 1.567285,2.194199 1.880742,2.194199 4.388398,3.761484 2.194199,1.567285 2.507656,1.567285 3.13457,0.940371 2.507656,0.940371 5.015312,1.253828 2.821113,0.626914 h 3.13457 l 8.463337,-0.626914 2.50766,-0.313457 5.64222,-1.253828 4.70186,-1.880742 3.76148,-1.567285 2.50766,-0.940371 2.1942,-1.253828 5.01531,-2.507656 2.1942,-1.880742 2.1942,-1.567285 1.88074,-2.194199 2.1942,-1.880742 1.88074,-1.880742 2.1942,-1.880742 4.07494,-4.074941 1.88074,-2.194199 1.56729,-2.194199 1.88074,-2.194199 1.56729,-2.194199 3.44802,-4.701855 1.25383,-1.253828 h 0.62691 l -0.31345,1.880742 -1.25383,2.507656 -0.94037,3.13457 -1.25383,3.761484 -1.25383,4.388398 -0.62691,1.880742 -1.25383,4.388398 -0.94037,4.074941 -0.94037,2.821113 -0.94037,2.507656 -0.94037,2.821113 -0.94037,2.507656 -0.94038,2.821113 -0.62691,2.507656 -1.25383,2.507656 -1.56728,2.194199 -2.1942,1.567285 -2.82111,0.940371 -2.50766,0.940371 -2.82111,1.253828 -2.50766,1.253828 -2.82111,1.253828 -2.50766,0.940371 -2.82111,1.253828 -3.13457,1.567285 -5.95568,3.13457 -3.44803,1.880742 -3.44803,2.194199 -2.82111,1.880742 -5.642228,4.388398 -2.194199,2.194199 -1.880742,2.194199 -2.507656,2.194199 -1.253828,1.567285 -2.507656,2.507656 -1.880742,3.448027 -1.880742,3.761484 -1.567285,2.821113 z m 56.108799,-17.553592 -1.56728,4.701855 -1.88074,4.701855 -1.25383,4.074941 -1.25383,2.821113 -1.88074,3.448027 -2.1942,3.13457 -1.88074,2.507656 -2.82111,2.821113 -2.82112,2.507656 -2.82111,1.567285 -3.76148,0.626914 -5.01532,-0.940371 -3.76148,-2.507656 -1.56729,-4.701855 0.94038,-4.701855 1.25382,-3.761484 1.56729,-2.821113 3.76148,-4.388398 4.3884,-4.388398 2.1942,-1.567285 2.50766,-1.880742 2.50765,-1.567285 5.01531,-3.761484 1.56729,-1.253828 2.82111,-1.880742 2.50766,-1.567285 2.82111,-1.567285 1.88074,-0.626914 0.94037,1.880742 -0.94037,4.074941 z"
     id="path846" /><path
     d="m 336.33937,-78.050793 1.56728,-2.821113 0.94037,-1.567285 1.25383,-3.13457 1.25383,-3.761484 0.94037,-3.761484 0.31346,-3.13457 0.31345,-4.074941 v -3.76148 l -0.31345,-2.82112 -0.62692,-2.82111 -0.94037,-2.82111 -1.56728,-3.76149 -1.88074,-3.13457 -1.88075,-2.1942 -4.38839,-3.76148 -1.88075,-1.25383 -2.50765,-1.25383 -2.82112,-1.25382 -2.82111,-0.94038 -4.07494,-0.94037 -5.01531,-0.94037 -4.07494,-0.62691 h -6.89606 l -4.07494,0.62691 -5.64222,1.25383 -6.5826,2.1942 -4.07494,1.88074 -2.82111,1.25383 -3.13457,1.56728 -3.13457,1.88075 -2.82112,2.1942 -3.13457,2.19419 -2.82111,2.1942 -2.50766,2.1942 -4.70185,4.70186 -4.70186,5.01531 -1.88074,2.1942 -1.56728,2.194198 -1.25383,2.821113 -2.1942,3.13457 -1.88074,3.448027 -1.56729,2.821113 -1.56728,3.761484 -1.25383,3.448027 -0.94037,2.821113 -0.62692,2.821113 -0.94037,2.821113 -0.62691,2.821113 -0.94037,2.507656 -1.88074,8.463339 v 2.821113 l -0.31346,2.821113 v 5.955683 l 0.94037,8.463339 0.62691,2.821113 0.62692,2.507656 0.62691,2.821113 0.94037,2.821113 0.94037,2.507656 1.25383,2.821113 1.25383,2.194199 1.56729,2.507656 1.88074,2.194199 2.1942,2.507656 1.25382,1.567285 2.1942,2.194199 2.1942,1.880742 2.50766,1.253828 5.01531,2.821113 2.50766,1.253828 2.82111,1.253828 2.82111,0.940371 2.50766,0.626914 11.28445,1.253828 h 2.82111 l 3.44803,-0.313457 4.07494,-0.313457 6.5826,-0.626914 3.76148,-0.940371 4.07494,-0.626914 2.82112,-0.940371 2.50765,-0.940371 7.83643,-3.448027 5.01531,-3.13457 2.82111,-2.507656 3.13457,-2.507656 4.3884,-3.761484 1.88074,-2.194199 2.1942,-2.507656 0.94037,-1.253828 2.1942,-2.507656 1.88074,-2.194199 1.88075,-1.880742 1.88074,-2.194199 3.13457,-4.388398 1.88074,-2.821113 0.94037,-1.880742 3.13457,-5.015312 1.88074,-3.13457 1.88074,-3.448027 1.56729,-3.448027 1.88074,-3.448027 1.56729,-3.448027 1.25382,-2.821113 0.31346,-2.821113 -1.56728,-2.821113 -2.82112,-1.880742 h -2.82111 l -2.1942,1.567285 -1.56728,2.507656 -1.25383,2.507656 -1.25383,2.821113 -1.25383,2.507656 -1.56728,2.194199 -1.25383,2.507656 -1.56729,2.507656 -1.25382,2.507656 -1.56729,2.507656 -3.13457,4.388398 -1.88074,2.507656 -1.56729,2.194199 -3.76148,4.388398 -4.3884,4.074941 -2.1942,1.880742 -2.1942,1.567285 -4.38839,3.448027 -5.01532,2.507656 -5.32876,2.194199 -2.50766,0.940371 -2.82111,0.940371 -2.82112,0.626914 -8.14988,1.567285 -2.82111,0.313457 h -3.13457 l -2.82111,-0.313457 -2.82112,-0.626914 -2.1942,-0.313457 -2.82111,-0.940371 -3.13457,-0.940371 -5.01531,-3.13457 -1.88074,-1.880742 -1.88075,-2.194199 -3.13457,-5.015312 -1.88074,-5.642226 -0.62691,-2.507656 -0.31346,-3.13457 v -5.328769 l 0.31346,-3.13457 v -2.821113 l 0.62691,-2.194199 1.56729,-1.253828 h 2.1942 l 8.46334,1.880742 2.82111,0.313457 5.64222,0.313457 5.64223,0.626914 h 2.82111 l 2.82112,-0.313457 3.76148,-0.626914 3.44803,-0.313457 3.13457,-0.626914 2.82111,-0.313457 2.82111,-0.940371 3.13457,-0.940371 2.82112,-1.253828 1.88074,-0.940371 3.13457,-1.880742 1.88074,-0.626914 2.82111,-1.567285 2.1942,-1.567285 4.3884,-3.761484 3.76148,-4.388398 1.56729,-2.194199 z m -35.42064,-36.047557 3.13457,-0.62691 2.82111,0.31345 2.82111,0.62692 2.82112,1.25383 2.50765,1.88074 1.88074,2.1942 1.25383,2.82111 0.31346,3.13457 -0.31346,2.821114 -0.62691,3.13457 -1.88074,5.642226 -1.56729,2.821113 -1.25383,2.507656 -1.56728,2.194199 -1.88074,2.507656 -2.1942,1.880742 -2.1942,2.194199 -2.1942,1.880742 -2.1942,1.567285 -3.13457,1.567285 -1.88074,0.626914 -3.13457,1.253828 -2.82112,0.626914 -3.13457,0.626914 h -8.77679 l -3.13457,-0.313457 -6.26914,-0.313457 -4.07494,-0.940371 -1.56729,-1.567285 0.31346,-2.194199 0.94037,-2.507656 1.25383,-2.821113 1.25383,-3.761484 1.88074,-3.448027 1.56728,-2.821113 2.1942,-3.13457 2.1942,-3.448027 2.1942,-2.507656 2.50766,-2.821112 2.82111,-2.82111 4.3884,-3.76149 2.50765,-1.56728 3.76149,-1.88075 4.3884,-1.88074 z"
     id="path848" /><path
     d="m 453.25883,-153.90739 1.25383,-2.50765 2.50766,-7.52297 0.62691,-3.13457 0.94037,-2.50766 1.25383,-5.64222 0.62692,-8.46334 v -5.64223 l -0.62692,-4.07494 -1.25383,-3.76148 -1.25382,-2.82112 -1.56729,-3.76148 -2.1942,-3.13457 -1.56728,-2.50766 -4.3884,-3.76148 -2.50766,-1.25383 -3.13457,-0.94037 -1.88074,-0.31346 -3.13457,-0.62691 h -5.64223 l -2.82111,0.62691 -2.82111,0.94037 -3.44803,1.56729 -3.44803,2.1942 -5.01531,3.44803 -2.1942,1.56728 -2.1942,2.1942 -1.25382,1.56728 -4.07494,4.07495 -1.88075,2.50765 -4.07494,5.64223 -2.50765,4.07494 -1.88075,2.82111 -1.56728,2.82111 -1.56729,3.13457 -2.19419,5.32877 -1.56729,2.82112 -0.94037,1.88074 -1.25383,2.82111 -1.56728,3.76149 -2.1942,5.01531 -1.88074,4.3884 -0.62692,1.88074 -3.13457,8.14988 -1.25383,2.82111 -1.25382,3.76149 -1.25383,4.07494 -0.94037,2.1942 -1.25383,4.07494 -1.25383,4.3884 -0.31346,2.19419 -1.25382,4.3884 -0.94038,3.76149 -0.62691,2.82111 -0.94037,4.07494 -1.25383,4.701856 -0.62691,1.880742 -0.94037,3.761484 -0.62692,1.567285 -0.94037,5.642226 -0.94037,3.761484 -2.1942,10.344081 -0.62691,3.13457 -0.62692,2.821113 v 2.821113 l -0.31345,3.761484 -0.94037,6.896054 -0.31346,4.074941 v 1.880742 l -0.31346,3.13457 -0.31346,2.821113 v 2.821113 l 0.31346,2.821113 0.62692,3.448027 v 1.880742 l 0.62691,3.13457 0.31346,2.821113 0.94037,2.821113 0.62691,2.821113 0.94037,2.507656 1.25383,2.821113 1.25383,2.507656 1.88074,2.194199 1.88074,1.880742 2.1942,1.880742 2.50766,1.567285 2.50765,1.253828 2.82112,0.940371 2.50765,0.940371 2.82112,0.626914 3.13457,0.313457 h 1.88074 l 3.44802,0.313457 3.76149,-0.313457 6.26914,-1.253828 L 401.22497,0 l 2.82112,-1.253828 2.50765,-0.940371 2.50766,-1.253828 2.82111,-1.253828 2.50766,-1.253828 2.82111,-1.567285 2.1942,-1.880742 1.88074,-1.567285 2.1942,-2.194199 2.82111,-2.507656 2.50766,-3.13457 1.88074,-2.194199 2.1942,-2.821113 1.25383,-1.253828 2.1942,-2.821113 3.13457,-4.388398 1.88074,-2.507656 1.56728,-2.821113 0.62692,-1.567285 1.88074,-2.821113 1.56728,-2.507656 1.25383,-2.194199 1.56729,-2.507656 0.94037,-2.507656 1.25383,-2.507656 1.25382,-2.821113 1.56729,-2.507656 1.25383,-2.507656 0.94037,-2.821113 v -3.13457 l -2.50766,-3.13457 -4.07494,-0.626914 -3.13457,2.507656 -2.82111,4.074941 -1.56729,3.13457 -1.56728,2.821113 -1.88074,2.821113 -1.56729,2.507656 -2.50765,4.701855 -1.88075,2.821113 -1.25382,1.567285 -1.88075,2.821113 -1.25382,2.194199 -1.88075,2.507656 -1.25382,1.567285 -1.88075,2.507656 -2.50765,2.194199 -3.76149,3.448027 -2.82111,2.821113 -3.13457,2.507656 -2.50766,1.880742 -3.44802,1.880742 -3.76149,1.567285 -2.82111,0.940371 -2.50766,0.313457 h -5.32876 l -3.13457,-0.626914 -2.50766,-0.940371 -2.50766,-1.567285 -1.88074,-2.194199 -1.25383,-2.507656 -1.25382,-2.821113 -0.62692,-3.13457 -0.31346,-1.880742 -0.62691,-3.448027 v -6.26914 l 0.31346,-4.074941 v -6.582597 l 0.31345,-3.13457 0.62692,-2.821113 0.62691,-3.13457 V -62.6914 l 0.94037,-5.642226 0.62692,-3.448027 1.25383,-2.507656 2.19419,-2.821113 3.44803,-2.821113 2.50766,-1.567285 2.1942,-0.940371 6.89605,-4.388398 2.50766,-1.567285 4.70185,-4.074941 3.44803,-2.507656 2.50765,-2.507656 2.1942,-1.880742 3.44803,-3.761481 1.88074,-2.1942 4.07494,-4.07494 2.1942,-2.50766 1.25383,-1.56728 2.82111,-2.82112 2.82112,-3.13457 2.1942,-2.82111 1.56728,-2.50766 1.25383,-1.88074 1.56728,-2.82111 1.56729,-2.1942 1.56728,-2.50766 1.56729,-2.1942 2.1942,-3.44802 1.56728,-3.44803 2.50766,-5.01531 1.56728,-2.82111 z m -49.83966,3.76149 1.25383,-2.82112 1.88074,-4.70185 1.25383,-3.44803 0.94037,-2.50765 1.25383,-2.82112 1.25383,-2.50765 1.25382,-2.82112 1.25383,-2.50765 1.25383,-2.82112 1.56729,-2.82111 3.13457,-4.70185 1.56728,-2.50766 1.56729,-2.1942 1.56728,-1.88074 2.1942,-1.88074 2.82111,-2.1942 2.82112,-0.62692 2.50765,0.62692 2.1942,1.56728 0.94037,2.50766 0.62692,2.50766 v 5.95568 l -0.31346,2.82111 -0.31346,3.13457 -1.25383,3.44803 -0.94037,3.44803 -1.25383,3.44802 -0.94037,3.44803 -0.94037,2.82111 -0.62691,2.82112 -1.25383,2.82111 -1.25383,3.13457 -0.94037,1.88074 -1.25383,3.13457 -2.50765,5.01531 -1.56729,2.1942 -1.25383,2.1942 -1.56728,2.50766 -2.1942,3.44802 -2.1942,3.13457 -2.1942,2.82112 -1.88074,2.82111 -1.25383,1.25383 -1.88074,2.82111 -1.56728,2.50766 -1.56729,2.1942 -12.85174,12.85173 -3.13457,2.507659 -1.88074,1.253828 -0.62691,-1.880742 0.62691,-3.134575 0.94037,-2.82111 0.94037,-3.13457 0.31346,-1.88074 0.94037,-3.13457 2.1942,-6.5826 1.25383,-4.07494 0.94037,-2.82111 0.62691,-2.82111 4.3884,-13.1652 z"
     id="path850" /><path
     d="m 545.41518,-153.90739 1.25382,-2.50765 2.50766,-7.52297 0.62691,-3.13457 0.94038,-2.50766 1.25382,-5.64222 0.62692,-8.46334 v -5.64223 l -0.62692,-4.07494 -1.25382,-3.76148 -1.25383,-2.82112 -1.56729,-3.76148 -2.1942,-3.13457 -1.56728,-2.50766 -4.3884,-3.76148 -2.50766,-1.25383 -3.13457,-0.94037 -1.88074,-0.31346 -3.13457,-0.62691 h -5.64222 l -2.82112,0.62691 -2.82111,0.94037 -3.44803,1.56729 -3.44802,2.1942 -5.01532,3.44803 -2.19419,1.56728 -2.1942,2.1942 -1.25383,1.56728 -4.07494,4.07495 -1.88074,2.50765 -4.07495,5.64223 -2.50765,4.07494 -1.88074,2.82111 -1.56729,2.82111 -1.56728,3.13457 -2.1942,5.32877 -1.56729,2.82112 -0.94037,1.88074 -1.25383,2.82111 -1.56728,3.76149 -2.1942,5.01531 -1.88074,4.3884 -0.62692,1.88074 -3.13457,8.14988 -1.25382,2.82111 -1.25383,3.76149 -1.25383,4.07494 -0.94037,2.1942 -1.25383,4.07494 -1.25383,4.3884 -0.31345,2.19419 -1.25383,4.3884 -0.94037,3.76149 -0.62692,2.82111 -0.94037,4.07494 -1.25383,4.701856 -0.62691,1.880742 -0.94037,3.761484 -0.62692,1.567285 -0.94037,5.642226 -0.94037,3.761484 -2.1942,10.344081 -0.62691,3.13457 -0.62691,2.821113 v 2.821113 l -0.31346,3.761484 -0.94037,6.896054 -0.31346,4.074941 v 1.880742 l -0.31346,3.13457 -0.31345,2.821113 v 2.821113 l 0.31345,2.821113 0.62692,3.448027 v 1.880742 l 0.62691,3.13457 0.31346,2.821113 0.94037,2.821113 0.62691,2.821113 0.94037,2.507656 1.25383,2.821113 1.25383,2.507656 1.88074,2.194199 1.88074,1.880742 2.1942,1.880742 2.50766,1.567285 2.50766,1.253828 2.82111,0.940371 2.50765,0.940371 2.82112,0.626914 3.13457,0.313457 h 1.88074 l 3.44803,0.313457 3.76148,-0.313457 6.26914,-1.253828 L 493.38131,0 l 2.82112,-1.253828 2.50765,-0.940371 2.50766,-1.253828 2.82111,-1.253828 2.50766,-1.253828 2.82111,-1.567285 2.1942,-1.880742 1.88074,-1.567285 2.1942,-2.194199 2.82111,-2.507656 2.50766,-3.13457 1.88074,-2.194199 2.1942,-2.821113 1.25383,-1.253828 2.1942,-2.821113 3.13457,-4.388398 1.88074,-2.507656 1.56729,-2.821113 0.62691,-1.567285 1.88074,-2.821113 1.56729,-2.507656 1.25382,-2.194199 1.56729,-2.507656 0.94037,-2.507656 1.25383,-2.507656 1.25383,-2.821113 1.56728,-2.507656 1.25383,-2.507656 0.94037,-2.821113 v -3.13457 l -2.50766,-3.13457 -4.07494,-0.626914 -3.13457,2.507656 -2.82111,4.074941 -1.56728,3.13457 -1.56729,2.821113 -1.88074,2.821113 -1.56729,2.507656 -2.50765,4.701855 -1.88074,2.821113 -1.25383,1.567285 -1.88074,2.821113 -1.25383,2.194199 -1.88074,2.507656 -1.25383,1.567285 -1.88074,2.507656 -2.50766,2.194199 -3.76148,3.448027 -2.82112,2.821113 -3.13457,2.507656 -2.50765,1.880742 -3.44803,1.880742 -3.76148,1.567285 -2.82112,0.940371 -2.50765,0.313457 h -5.32877 l -3.13457,-0.626914 -2.50766,-0.940371 -2.50765,-1.567285 -1.88075,-2.194199 -1.25382,-2.507656 -1.25383,-2.821113 -0.62692,-3.13457 -0.31345,-1.880742 -0.62692,-3.448027 v -6.26914 l 0.31346,-4.074941 v -6.582597 l 0.31346,-3.13457 0.62691,-2.821113 0.62691,-3.13457 V -62.6914 l 0.94038,-5.642226 0.62691,-3.448027 1.25383,-2.507656 2.1942,-2.821113 3.44802,-2.821113 2.50766,-1.567285 2.1942,-0.940371 6.89605,-4.388398 2.50766,-1.567285 4.70185,-4.074941 3.44803,-2.507656 2.50766,-2.507656 2.1942,-1.880742 3.44802,-3.761481 1.88074,-2.1942 4.07495,-4.07494 2.19419,-2.50766 1.25383,-1.56728 2.82112,-2.82112 2.82111,-3.13457 2.1942,-2.82111 1.56728,-2.50766 1.25383,-1.88074 1.56729,-2.82111 1.56728,-2.1942 1.56729,-2.50766 1.56728,-2.1942 2.1942,-3.44802 1.56728,-3.44803 2.50766,-5.01531 1.56729,-2.82111 z m -49.83967,3.76149 1.25383,-2.82112 1.88074,-4.70185 1.25383,-3.44803 0.94037,-2.50765 1.25383,-2.82112 1.25383,-2.50765 1.25383,-2.82112 1.25382,-2.50765 1.25383,-2.82112 1.56729,-2.82111 3.13457,-4.70185 1.56728,-2.50766 1.56729,-2.1942 1.56728,-1.88074 2.1942,-1.88074 2.82111,-2.1942 2.82112,-0.62692 2.50765,0.62692 2.1942,1.56728 0.94037,2.50766 0.62692,2.50766 v 5.95568 l -0.31346,2.82111 -0.31346,3.13457 -1.25382,3.44803 -0.94038,3.44803 -1.25382,3.44802 -0.94037,3.44803 -0.94038,2.82111 -0.62691,2.82112 -1.25383,2.82111 -1.25383,3.13457 -0.94037,1.88074 -1.25382,3.13457 -2.50766,5.01531 -1.56729,2.1942 -1.25382,2.1942 -1.56729,2.50766 -2.1942,3.44802 -2.1942,3.13457 -2.1942,2.82112 -1.88074,2.82111 -1.25383,1.25383 -1.88074,2.82111 -1.56728,2.50766 -1.56729,2.1942 -12.85173,12.85173 -3.13457,2.507659 -1.88075,1.253828 -0.62691,-1.880742 0.62691,-3.134575 0.94037,-2.82111 0.94038,-3.13457 0.31345,-1.88074 0.94037,-3.13457 2.1942,-6.5826 1.25383,-4.07494 0.94037,-2.82111 0.62692,-2.82111 4.38839,-13.1652 z"
     id="path852" /></g>
<g
   id="g28"><g
     clip-path="url(#clipPath34)"
     id="g30"><g
   aria-label="Bijoux"
   transform="matrix(0.78399049,0.00348136,-0.44595176,-0.99999394,203.1823,70.0988)"
   id="text38"
   style="font-weight:900;font-size:108.233px;font-family:'Nexa Rust Sans Black';-inkscape-font-specification:NexaRustSans-Black;fill:#9babb3"><path
     d="m 75.222254,-24.785462 -0.216467,-1.839969 -0.432933,-1.839969 -0.541168,-1.731735 -0.432934,-0.865868 -0.757634,-1.731735 -0.974101,-1.623502 -1.623502,-2.272903 -1.298801,-1.407035 -1.298802,-1.190568 -0.974101,-1.082334 -0.3247,-0.865868 0.3247,-0.757634 0.865868,-0.865868 1.731735,-1.623502 1.082335,-1.190568 1.190568,-2.056436 0.6494,-1.515268 0.649401,-2.48937 0.324701,-1.839968 0.108233,-1.839969 -0.108233,-1.731736 -0.432934,-2.81407 -0.324701,-1.731735 -0.541167,-1.623502 -0.649401,-1.515268 -1.190568,-2.056436 -0.757634,-1.407035 -1.515268,-1.839969 -1.082335,-1.190568 -1.839969,-1.515268 -1.407035,-0.974101 -2.056435,-1.082335 -1.623502,-0.757634 -4.112872,-1.298802 -1.839969,-0.3247 -1.839968,-0.216467 -6.277541,-0.432934 h -1.731735 l -5.952841,-0.108233 h -1.731735 l -5.844607,0.216467 -9.416311,-0.541168 -11.7974469,0.324701 -1.7317354,0.108233 -1.5152684,0.216467 -1.0823346,0.649401 -0.4329339,1.407035 v 2.489369 l 0.3247004,3.247004 0.1082335,1.731736 0.4329338,5.736373 -0.1082334,1.731735 -0.3247004,5.736374 -0.1082335,1.731735 0.1082335,5.736373 v 1.731736 l 0.2164669,5.736373 v 1.731735 l -0.4329338,5.736374 v 4.762272 l -0.1082335,2.705836 v 1.623502 l 0.1082335,1.515269 0.1082334,1.623502 0.1082335,2.705836 0.1082334,1.731735 -0.3247003,5.736374 v 1.8399686 l -0.1082335,0.8658677 v 1.7317353 l -0.1082335,1.6235019 0.1082335,1.5152685 0.2164669,1.190568 0.5411673,0.54116732 0.8658677,0.32470038 1.5152684,0.21646692 L 9.416311,-0.10823346 13.529182,0 h 1.623502 l 5.952841,-0.21646692 h 1.731735 l 6.061074,0.32470038 h 9.416311 l 5.95284,-0.21646692 h 1.731735 l 2.597603,-0.21646692 1.731736,-0.10823346 2.489369,-0.32470038 4.870506,-0.97410118 1.623502,-0.5411672 1.731735,-0.5411673 1.623502,-0.7576343 1.515268,-0.7576342 1.407035,-0.8658677 2.705837,-1.9482022 1.190568,-1.1905681 1.731735,-2.0564356 0.974101,-1.407035 1.082335,-2.056436 0.649401,-1.515268 0.757634,-2.272903 0.3247,-1.623502 0.216467,-2.81407 0.108234,-1.731735 z m -49.029757,-30.305369 0.324701,-2.597603 0.3247,-1.407035 0.432934,-0.541167 0.649401,-0.324701 0.974101,-0.108233 1.082334,-0.216467 h 2.272903 l 1.731735,-0.108233 2.705837,-0.108234 h 1.623502 l 4.221105,0.541167 h 0.974101 l 1.839969,0.216467 0.757634,0.108234 1.623502,0.432934 0.6494,0.216467 1.515269,1.082334 0.974101,1.407035 0.3247,1.407035 v 1.839969 l -0.3247,1.515268 -0.649401,1.082335 -0.757634,0.865868 -1.082335,0.757634 -1.298801,0.649401 -1.407035,0.3247 h -2.381136 l -3.679938,-0.216467 -2.489369,-0.216467 h -1.839969 l -1.839969,0.108234 h -4.329338 l -1.298802,-0.108234 -0.865868,-0.432934 -0.432933,-0.6494 -0.216467,-1.190568 -0.108234,-1.731736 -0.108233,-0.865868 z m 23.594894,37.124077 -1.731735,0.3247 -3.679938,0.216467 -15.260917,0.3247 -1.407035,-0.216467 -0.757635,-0.432933 -0.432933,-0.649401 -0.216467,-1.190568 v -2.164669 l 0.216467,-1.839969 v -2.381136 l -0.108234,-1.731736 v -1.839968 l 0.108234,-1.298802 0.3247,-0.541167 0.974101,-0.324701 1.948202,-0.3247 1.623502,-0.108233 h 6.385774 l 1.839969,-0.108234 4.870506,-0.216467 1.515268,0.108234 0.757634,0.216467 1.623502,0.541167 1.731736,0.974101 1.407035,1.407035 0.6494,0.757634 0.865868,1.515269 0.324701,1.515268 0.108233,1.515268 -0.108233,0.649401 -0.324701,1.731736 -0.757634,1.623501 -0.432934,0.649401 -0.865868,0.757634 z"
     id="path855" /><path
     d="m 109.20756,-22.83726 v -9.416311 l 0.21647,-5.844607 v -1.731735 l -0.10824,-5.844607 v -1.731735 l 0.10824,-5.952841 v -1.731735 l -0.10824,-5.844607 v -10.606879 l -0.10823,-1.731735 -0.21647,-2.81407 -0.10823,-1.190568 -0.21647,-0.649401 -1.19056,-0.216467 h -6.71048 l -4.978738,0.216467 h -1.731735 l -2.597603,-0.108233 -1.623502,0.108233 h -0.865867 l -1.082335,0.108234 -0.649401,0.432933 -0.3247,1.190569 0.216467,5.95284 v 9.308077 l -0.108234,5.844607 v 1.731735 l 0.108234,5.952841 v 9.308077 l 0.108233,5.844607 v 1.731735 l 0.324701,5.952841 -0.108234,1.731735 -0.3247,5.844607 -0.108234,1.731735 0.324701,5.844607 v 1.6235019 l 0.108233,1.6235019 v 1.7317354 l 0.216467,2.7058364 v 1.08233464 l 0.3247,0.32470038 0.649401,0.21646692 5.411673,0.43293384 h 6.710473 l 5.51991,0.10823346 1.51527,-0.10823346 0.86586,-0.21646692 0.3247,-0.64940076 v -1.1905681 l 0.10824,-5.9528402 V -9.416311 l 0.43293,-5.844607 v -1.731735 z"
     id="path857" /><path
     d="m 193.73789,-46.973321 0.10823,-1.731736 -0.10823,-5.519906 -0.10824,-1.731736 -0.3247,-5.519906 v -1.731735 l 0.3247,-5.411673 0.10824,-1.731736 -0.10824,-2.489369 -0.10823,-1.623502 -0.10823,-1.515269 -0.10824,-1.190568 -0.43293,-0.6494 -1.08233,-0.324701 h -1.62351 l -4.97874,0.216467 h -9.95747 l -6.38578,-0.216467 -1.73173,0.108234 -6.49401,0.541167 h -1.73174 l -4.32933,-0.216467 h -2.27291 l -1.2988,0.432934 -0.6494,1.190568 -0.10823,1.623502 0.3247,5.086972 v 1.731736 l -0.3247,4.545805 0.10823,1.623502 v 0.649401 l 0.6494,1.298801 1.2988,0.541168 h 1.51527 l 3.46347,-0.324701 h 1.73174 l 4.8705,0.324701 h 1.73174 l 4.97874,-0.324701 0.86587,0.432934 -0.10824,1.515268 -0.10823,6.494008 v 1.731735 l -0.10824,6.602241 v 1.731736 l -0.10823,6.494007 v 1.623502 l -0.10823,2.48937 -0.21647,1.623502 -0.54117,2.381136 -0.6494,1.623502 -0.9741,1.623502 -1.19057,1.298801 -2.05643,1.731735 -1.51527,0.865868 -1.51527,0.757634 -1.51527,0.541168 -3.247,0.6494 -1.6235,0.108234 -2.59761,-0.324701 -1.73173,-0.432933 -1.6235,-0.757635 -1.51527,-0.974101 -2.05644,-1.839969 -1.08233,-1.407034 -0.75764,-1.407035 -0.6494,-1.515269 -0.75763,-2.489369 -0.3247,-1.515269 -0.10824,-0.757634 -0.10823,-1.407035 -0.54117,-1.190568 -1.2988,-0.649401 -1.73173,0.108234 -3.24701,0.3247 -1.73173,0.108233 -4.87051,-0.216467 h -4.8705 l -1.62351,0.108234 -1.19056,0.432934 -0.43294,1.407035 v 1.839969 l 0.10824,1.839968 0.10823,2.48937 0.3247,1.731735 0.43293,2.705837 1.08234,3.46347 0.54117,1.623502 1.08233,2.272903 0.75763,1.407035 1.29881,2.0564357 0.9741,1.1905681 1.6235,1.8399688 1.19057,1.0823346 1.9482,1.5152684 1.40703,0.8658677 2.05644,1.0823346 3.8964,1.40703496 3.78818,1.19056806 4.00463,0.86586768 5.51991,0.7576342 2.48937,0.1082335 1.83997,0.1082334 3.67994,-0.2164669 2.70583,-0.2164669 1.6235,-0.3247004 2.48937,-0.43293382 1.51527,-0.43293384 2.48937,-0.75763422 1.51527,-0.64940076 2.2729,-1.08233456 1.40704,-0.8658677 2.05643,-1.2988015 1.29881,-0.9741012 1.83996,-1.6235018 1.19057,-1.1905681 1.6235,-1.7317354 1.08234,-1.4070346 1.6235,-2.056436 0.9741,-1.623502 0.86587,-1.623502 0.75763,-1.623502 0.75764,-2.272902 0.54117,-1.515269 0.6494,-2.489369 0.3247,-1.623502 0.3247,-2.705837 0.21646,-3.679937 v -1.839969 l -0.21646,-5.519907 0.10823,-1.731735 z"
     id="path859" /><path
     d="m 291.03976,-43.618084 -0.3247,-1.839969 -0.21647,-1.839969 -0.6494,-3.247004 -0.54117,-2.489369 -0.54116,-1.515269 -0.75764,-1.623501 -0.86587,-1.407035 -1.19056,-2.16467 -0.86587,-1.407035 -0.75764,-1.407035 -0.86586,-1.407035 -1.51527,-2.056435 -0.9741,-1.298802 -1.19057,-1.190568 -1.19057,-1.082334 -1.83997,-1.731736 -1.40703,-1.082334 -1.40704,-0.974102 -3.5717,-2.056435 -1.51527,-0.649401 -2.2729,-0.865868 -1.6235,-0.541167 -1.62351,-0.432934 -1.73173,-0.432934 -1.83997,-0.3247 -1.83997,-0.432934 -1.83997,-0.3247 -1.83997,-0.216467 -2.5976,-0.108234 -3.247,-0.216467 -3.46347,0.216467 -5.41168,0.649401 -1.6235,0.324701 -4.11287,0.757634 -1.6235,0.432934 -1.6235,0.541167 -1.51527,0.541167 -2.27291,0.974101 -1.51526,0.757635 -1.51527,0.865867 -1.40704,0.865868 -3.247,2.164669 -1.40704,0.974101 -1.40703,1.082335 -1.83997,1.515268 -1.2988,1.298802 -0.54117,0.865867 -1.08233,1.515269 -1.51527,2.381136 -0.86587,1.623502 -0.43293,0.974101 -0.75764,1.731735 -0.75763,2.48937 -0.6494,1.731735 -0.54117,1.623502 -0.54117,1.839969 -0.43293,1.839969 -0.3247,1.839969 -0.21647,1.839968 -0.10823,1.948203 -0.10824,1.839968 v 1.839969 l 0.10824,1.839969 0.10823,1.623502 0.3247,2.381136 0.3247,1.623502 0.3247,1.731735 0.3247,1.623502 0.6494,2.272903 1.62351,4.870506 0.86586,2.164669 0.86587,1.407035 1.08234,1.407035 1.08233,1.298801 2.9223,2.922304 1.19057,1.4070346 1.2988,1.4070349 1.40704,1.1905681 1.40703,1.0823346 1.62351,0.9741011 1.6235,0.8658677 3.46347,1.5152684 1.83997,0.7576342 1.73173,0.5411673 5.84461,1.94820232 1.6235,0.43293388 1.51527,0.3247003 3.5717,0.4329339 3.67994,0.2164669 h 5.84461 l 1.83997,-0.1082335 1.83997,-0.3247003 1.83996,-0.4329339 1.73174,-0.43293382 1.83997,-0.5411673 3.46347,-1.0823346 1.6235,-0.43293388 2.16467,-0.8658676 1.51527,-0.6494008 1.6235,-0.8658677 1.40704,-0.8658676 1.9482,-1.2988016 1.2988,-0.9741011 1.40703,-1.0823346 1.19057,-1.0823346 1.73174,-1.8399683 1.08233,-1.190569 1.08234,-1.407035 0.9741,-1.407034 2.9223,-4.870506 0.75764,-1.515269 1.08233,-2.272902 0.43293,-1.623502 0.3247,-1.731735 0.21647,-1.623502 0.21647,-2.48937 0.6494,-3.247004 0.21647,-1.623502 0.21646,-2.489369 0.10824,-1.731736 z m -22.72903,8.117509 -0.21646,1.623502 -0.54117,2.48937 -0.6494,1.623502 -1.08234,2.381136 -0.9741,1.515268 -1.40703,1.731736 -1.08234,1.190568 -1.73173,1.731735 -1.2988,0.974101 -2.38114,1.515269 -1.51527,0.6494 -2.38114,0.541168 -1.73173,0.216466 -2.70584,0.216467 -1.83997,-0.108233 -2.70583,-0.3247 -1.6235,-0.324701 -2.27291,-0.757634 -1.6235,-0.649401 -1.73173,-0.865867 -1.51527,-0.974102 -2.16467,-1.839968 -1.2988,-1.298802 -0.6494,-0.757634 -1.19057,-1.515269 -0.54117,-0.865867 -0.86587,-1.515269 -0.43293,-0.865867 -0.54117,-1.515269 -0.21647,-0.757634 -0.43293,-1.623502 -0.10823,-0.974101 -0.3247,-1.731735 -0.10824,-1.731736 v -1.623502 l 0.10824,-1.623502 0.10823,-1.515268 0.21647,-1.515268 0.3247,-1.515269 0.3247,-0.757634 0.54117,-1.623502 0.9741,-2.272903 0.3247,-0.6494 0.86586,-1.407035 1.19057,-1.623502 1.19057,-1.298802 1.73174,-1.515268 1.51526,-0.974101 2.48937,-1.298802 1.73174,-0.649401 2.81407,-0.757634 1.6235,-0.3247 2.38114,-0.108234 1.6235,-0.108233 3.46347,0.216467 1.73174,0.3247 1.73173,0.541168 1.51527,0.6494 2.81407,1.623502 1.19057,0.974101 1.6235,1.731736 1.08233,1.190568 1.51527,1.948202 0.86587,1.407035 1.19057,2.381136 0.43293,1.515269 0.6494,3.247003 0.10824,1.731736 0.10823,1.839968 v 1.839969 z"
     id="path861" /><path
     d="m 374.48775,-42.968683 0.43294,-6.710475 v -1.731735 l 0.21647,-6.602241 v -1.731736 l -0.32471,-6.710474 v -1.731735 l 0.10824,-2.48937 v -1.623502 l -0.10824,-3.247004 -0.10823,-1.298801 -0.86587,-0.757634 -1.40703,-0.324701 -1.6235,-0.108233 h -1.73174 l -4.32934,0.3247 h -1.73173 l -5.51991,-0.432934 h -2.2729 l -1.40704,0.324701 -0.9741,0.865867 -0.43293,1.515269 v 2.705836 l 0.3247,4.545806 0.10823,1.731735 0.21647,6.710474 v 1.731736 l -0.21647,6.602241 v 1.731735 l -0.3247,6.710475 v 1.731735 l 0.43294,6.602241 -0.10824,1.731735 -0.43293,3.247004 -0.3247,1.731735 -0.54117,1.731736 -0.75763,1.623502 -1.19057,2.272902 -1.08234,1.298802 -1.73173,1.515268 -1.40704,0.865868 -2.05643,0.974101 -1.6235,0.432934 -2.81407,0.541167 h -1.73174 l -2.81407,-0.216467 -1.6235,-0.432934 -2.38114,-0.865867 -1.40703,-0.865868 -1.73174,-1.839969 -1.08233,-1.298801 -1.08234,-2.48937 -0.6494,-1.623502 -0.6494,-2.381136 -0.3247,-1.731735 -0.21647,-2.705837 -0.10823,-1.731735 0.10823,-6.602241 v -1.731735 l 0.32471,-6.602241 v -1.731736 l 0.10823,-6.602241 v -1.731735 l -0.3247,-6.602241 v -1.731735 l 0.21647,-4.221105 v -1.623502 l -0.10824,-1.515269 -0.3247,-1.407035 -0.86587,-0.865867 -1.40703,-0.324701 -2.48937,-0.108233 -1.6235,-0.108234 -3.57171,0.108234 h -1.73173 l -4.11287,-0.324701 -3.57171,0.216467 -1.40703,0.324701 -0.75764,0.974101 -0.3247,1.731735 -0.10823,1.839969 v 1.839969 l 0.21647,3.463471 v 10.065711 l -0.3247,6.602241 v 1.731736 l 0.21646,6.602241 v 1.731735 l -0.3247,6.602241 0.10824,1.731735 0.21646,3.679938 0.21647,1.839969 0.3247,1.839969 0.43293,2.381136 0.43294,1.623502 0.43293,1.515268 0.6494,1.623502 0.75764,1.731735 0.86586,1.623502 0.97411,1.515269 1.73173,2.81407 0.9741,1.2988011 1.40704,1.8399688 1.19056,1.1905681 2.81407,2.3811361 1.62351,1.0823346 1.6235,0.9741011 2.38113,1.0823346 1.73174,0.75763422 L 322.64393,0 l 1.73173,0.5411673 0.9741,0.10823346 1.73174,0.32470038 5.95284,0.64940076 1.6235,0.1082335 2.48937,0.2164669 h 4.97874 l 3.35524,-0.2164669 1.6235,-0.3247004 2.48937,-0.43293386 1.6235,-0.43293384 2.38114,-0.86586768 1.6235,-0.5411673 2.2729,-1.08233462 1.40704,-0.7576342 2.16467,-1.2988015 1.40703,-0.9741011 2.16467,-1.7317354 1.40703,-1.190568 1.29881,-1.407035 1.08233,-1.4070345 1.40704,-2.16467 0.75763,-1.515268 0.9741,-2.272903 0.54117,-1.515268 0.86587,-2.272903 0.43293,-1.623502 0.43293,-2.489369 0.3247,-1.731736 0.43294,-2.597603 0.21646,-1.623502 0.10824,-2.489369 0.10823,-1.623502 -0.21647,-3.463471 z"
     id="path863" /><path
     d="m 460.41429,-1.1905681 -0.6494,-1.5152684 -0.54116,-0.7576342 -0.97411,-1.407035 -5.08697,-7.1434083 -0.9741,-1.407035 -3.78817,-5.62814 -0.86587,-1.298801 -3.67994,-5.62814 -4.65403,-7.035175 -0.97411,-1.407035 -2.81407,-3.463471 -0.43293,-1.190568 0.54117,-1.082334 3.5717,-5.62814 0.86587,-1.298802 3.8964,-5.62814 0.86587,-1.407035 3.46347,-5.736373 0.86587,-1.407035 3.78817,-5.62814 3.89641,-5.195206 0.9741,-1.515268 0.9741,-1.623502 0.54117,-1.407035 -0.64941,-0.865868 -1.51526,-0.3247 h -5.19521 l -4.97874,0.216467 -1.73173,-0.108234 -4.43758,-0.3247 -1.73173,-0.108234 -1.83997,0.216467 -1.40704,0.541167 -0.9741,0.865868 -0.75763,1.190568 -1.51527,2.81407 -0.86587,1.515269 -2.9223,4.437571 -0.86587,1.515269 -2.2729,4.870506 -0.86587,1.515268 -2.9223,4.545805 -0.86587,0.757634 -0.86587,-0.6494 -3.03053,-5.195206 -0.86587,-1.515269 -2.5976,-5.411673 -0.86587,-1.515268 -3.13877,-5.086973 -0.86587,-1.515268 -0.3247,-0.649401 -1.2988,-1.948202 -0.9741,-0.865868 -1.51527,-0.3247 -1.73174,-0.108234 -13.85388,0.216467 -1.73174,-0.108233 h -3.247 l -0.86587,0.541167 v 0.541167 l -0.21646,0.216467 0.21646,0.974101 3.46347,4.654039 0.86587,1.298802 3.13877,4.978739 3.89641,6.061074 0.86586,1.407034 3.46347,4.654039 0.86587,1.407035 2.81407,4.978739 0.86587,1.407035 3.35524,4.762273 0.54116,0.757634 0.10824,0.541167 -0.54117,1.082335 -3.35524,4.870505 -0.86586,1.407035 -3.46347,4.870506 -0.86587,1.407035 -3.46347,4.870506 -0.9741,1.515268 -11.25628,16.3432524 -0.86587,1.2988015 -0.10824,1.08233464 0.75764,0.64940076 1.51527,-0.10823346 L 388.54728,0 l 1.73173,-0.10823346 12.01392,0.64940076 h 1.6235 l 1.08233,-0.32470038 3.24701,-4.65403872 1.08233,-1.5152685 2.5976,-3.4634707 0.9741,-1.515268 2.59761,-5.195206 0.86587,-1.515269 4.2211,-6.602241 h 0.86587 l 8.00927,12.771548 0.86587,1.5152687 2.2729,4.004638 0.97411,1.407035 1.9482,2.7058365 0.9741,1.08233458 L 437.1441,0 l 0.9741,0.21646692 5.95284,0.10823346 h 1.73174 l 5.95284,-0.21646692 1.73173,0.10823346 4.43757,0.21646692 1.62351,0.10823346 0.86586,-0.43293384 z"
     id="path865" /></g>
</g></g></g></svg>